; NON-PLATED HOLES START AT T1
; THROUGH (PLATED) HOLES START AT T100
M48
INCH
T100C0.038445
T101C0.043307
T102C0.038972
T103C0.046111
T104C0.038417
T105C0.038000
T106C0.039000
%
T100
X023444Y021333
X018444Y021333
X019444Y021333
X024444Y021333
X010844Y021333
X015844Y021333
X021444Y021333
X014844Y021333
X022444Y021333
X009844Y021333
X007844Y021333
X025444Y021333
X020444Y021333
X011844Y021333
X012844Y021333
X016844Y021333
X008844Y021333
X013844Y021333
T101
X029444Y020333
X030444Y021333
X031444Y020333
X030444Y019333
T102
X030444Y016333
X030444Y015333
T103
X030444Y009333
X030444Y011333
X030444Y010333
X030444Y012333
T104
X021444Y002333
X015444Y002333
X022444Y002333
X016444Y002333
X020444Y002333
X024444Y002333
X017444Y002333
X023444Y002333
X018444Y002333
X014444Y002333
X025444Y002333
X013444Y002333
X012444Y002333
X011444Y002333
T105
X029444Y005333
X029444Y004333
X029444Y006333
T106
X030444Y017333
X030444Y018333
T00
M30
